<?xml version="1.0" standalone="no"?>
<!DOCTYPE svg PUBLIC "-//W3C//DTD SVG 20010904//EN" "http://www.w3.org/TR/2001/REC-SVG-20010904/DTD/svg10.dtd">
<!-- Created using Karbon, part of Calligra: http://www.calligra.org/karbon -->
<svg xmlns="http://www.w3.org/2000/svg" xmlns:xlink="http://www.w3.org/1999/xlink" width="19.2pt" height="19.2pt">
<defs/>
<g id="layer0">
  <path id="shape0" transform="translate(3, 17)" fill="#ffffff" d="M16 0L2 0C0.897 0 0 0.897 0 2C0 3.103 0.897 4 2 4L16 4C17.103 4 18 3.103 18 2C18 0.897 17.103 0 16 0Z"/>
  <path id="shape1" transform="translate(3, 10)" fill="#ffffff" d="M16 0L2 0C0.897 0 0 0.897 0 2C0 3.103 0.897 4 2 4L16 4C17.103 4 18 3.103 18 2C18 0.897 17.103 0 16 0Z"/>
  <path id="shape2" transform="translate(3, 3)" fill="#ffffff" d="M16 0L2 0C0.897 0 0 0.897 0 2C0 3.103 0.897 4 2 4L16 4C17.103 4 18 3.103 18 2C18 0.897 17.103 0 16 0Z"/>
 </g>
</svg>
